<?xml version="1.0" standalone="no"?>
<!DOCTYPE svg PUBLIC "-//W3C//DTD SVG 20010904//EN"
 "http://www.w3.org/TR/2001/REC-SVG-20010904/DTD/svg10.dtd">
<svg version="1.0" xmlns="http://www.w3.org/2000/svg"
 width="571.000000pt" height="571.000000pt" viewBox="0 0 571.000000 571.000000"
 preserveAspectRatio="xMidYMid meet">
<metadata>
Created by potrace 1.11, written by Peter Selinger 2001-2013
</metadata>
<g transform="translate(0.000000,571.000000) scale(0.100000,-0.100000)"
fill="#000000" stroke="none">
<path d="M2204 4287 c-3 -9 -11 -14 -16 -11 -6 4 -14 0 -19 -7 -7 -12 -9 -11
-9 1 0 12 -2 12 -9 2 -4 -8 -26 -15 -47 -16 -22 -1 -45 -5 -52 -10 -7 -4 -16
-5 -20 -2 -5 3 -21 -1 -36 -9 -14 -8 -24 -10 -21 -5 4 6 -5 5 -19 -1 -14 -7
-22 -17 -19 -23 4 -6 0 -5 -9 2 -12 10 -18 10 -23 2 -4 -7 -20 -10 -36 -8 -15
3 -26 1 -24 -3 6 -9 -24 -21 -36 -13 -5 3 -9 -1 -9 -8 0 -9 -3 -9 -10 2 -8 12
-10 12 -11 -5 0 -11 -3 -15 -5 -9 -3 8 -17 6 -45 -8 -22 -10 -44 -16 -49 -13
-6 3 -10 1 -10 -5 0 -7 -6 -10 -14 -7 -8 3 -17 0 -20 -8 -3 -8 -13 -11 -25 -8
-13 3 -21 1 -21 -7 0 -6 -6 -10 -12 -7 -7 2 -19 -3 -26 -12 -8 -9 -10 -10 -7
-3 6 11 3 12 -13 3 -12 -6 -24 -16 -27 -21 -4 -7 -13 -6 -27 1 -16 9 -19 8
-13 -1 6 -10 1 -12 -19 -8 -15 3 -24 3 -21 0 9 -10 -16 -31 -31 -25 -8 3 -14
0 -14 -7 0 -10 -3 -10 -15 0 -12 10 -15 9 -15 -5 0 -15 -2 -15 -16 -5 -12 11
-15 11 -12 -1 2 -9 -7 -15 -24 -17 -16 -2 -28 -8 -28 -14 0 -6 -11 -8 -24 -6
-18 4 -23 1 -18 -10 4 -12 0 -14 -16 -10 -11 3 -23 1 -25 -5 -1 -5 -13 -12
-26 -14 -15 -2 -20 1 -15 9 4 7 3 8 -5 4 -6 -4 -8 -12 -5 -18 5 -7 0 -9 -14
-6 -12 4 -20 2 -16 -3 3 -5 -7 -9 -21 -9 -15 0 -24 -4 -20 -10 5 -9 -15 -15
-37 -11 -5 0 -8 -5 -8 -12 0 -8 -4 -7 -10 3 -7 11 -10 11 -10 2 0 -7 -4 -10
-10 -7 -5 3 -10 -1 -10 -10 0 -9 -4 -13 -10 -10 -5 3 -10 1 -10 -5 0 -6 -4 -8
-10 -5 -5 3 -10 1 -10 -6 0 -8 -4 -8 -15 1 -13 11 -14 10 -9 -6 4 -10 4 -16
-1 -12 -4 4 -14 3 -22 -4 -7 -6 -16 -8 -20 -5 -3 4 -12 -1 -20 -11 -9 -10 -11
-11 -7 -2 7 13 5 13 -9 1 -9 -7 -17 -10 -17 -7 0 4 -7 0 -16 -8 -8 -9 -20 -14
-25 -11 -5 4 -9 1 -9 -5 0 -7 -7 -9 -16 -6 -10 4 -13 2 -8 -6 5 -7 0 -9 -14
-6 -12 4 -25 1 -30 -5 -4 -7 -16 -19 -26 -27 -18 -13 -19 -13 -11 0 4 8 -2 5
-14 -8 -12 -12 -26 -20 -32 -17 -5 4 -9 2 -9 -4 0 -5 -9 -8 -19 -6 -15 3 -18
-1 -14 -12 4 -11 2 -14 -5 -9 -6 3 -14 1 -19 -6 -4 -7 -12 -13 -18 -14 -26 -3
-55 -17 -55 -28 0 -6 -4 -5 -9 3 -7 11 -10 9 -15 -7 -4 -13 -13 -19 -22 -15
-7 3 -14 0 -14 -6 0 -6 -7 -8 -17 -4 -11 4 -14 3 -9 -5 6 -11 -5 -17 -26 -13
-5 0 -8 -3 -8 -9 0 -5 -7 -6 -17 -3 -11 4 -14 3 -9 -5 5 -8 0 -12 -14 -12 -12
0 -19 -4 -16 -8 3 -5 -8 -8 -23 -7 -23 1 -28 -2 -23 -14 3 -9 1 -13 -3 -8 -5
4 -17 0 -27 -10 -10 -9 -21 -14 -24 -11 -7 7 -49 -34 -57 -56 -4 -9 -2 -16 4
-16 6 0 7 -4 4 -10 -3 -5 -1 -10 4 -10 6 0 11 -4 11 -10 0 -15 33 -50 48 -50
7 0 11 -4 7 -9 -3 -5 6 -21 19 -34 14 -14 22 -28 19 -31 -6 -5 12 -10 29 -7 4
0 5 -8 3 -19 -2 -12 -1 -19 3 -17 4 2 15 -4 25 -15 9 -10 14 -18 11 -18 -3 0
8 -13 25 -29 21 -19 27 -31 19 -34 -7 -3 -2 -6 12 -6 18 -1 21 -4 11 -10 -11
-7 -9 -10 8 -16 14 -4 20 -12 17 -21 -4 -9 2 -14 15 -14 14 0 19 -5 16 -14 -3
-8 1 -17 9 -20 9 -3 12 -11 8 -17 -4 -7 -3 -9 3 -6 6 4 17 -1 24 -10 12 -14
12 -16 -1 -9 -8 4 0 -5 17 -22 18 -16 33 -34 33 -40 0 -6 12 -20 26 -31 15
-12 23 -21 19 -21 -4 0 -2 -7 5 -15 6 -8 9 -18 6 -24 -3 -5 0 -12 6 -14 7 -3
4 -6 -7 -7 -19 -1 -19 -1 -2 -11 16 -9 16 -12 2 -32 -8 -12 -15 -33 -15 -47 0
-14 -6 -32 -12 -38 -10 -10 -10 -15 2 -22 10 -7 11 -10 3 -10 -8 0 -13 -14
-13 -35 0 -19 -5 -35 -11 -35 -6 0 -9 -6 -6 -12 2 -7 0 -21 -5 -30 -14 -27
-16 -77 -4 -82 6 -2 4 -5 -4 -5 -10 -1 -15 -11 -15 -33 1 -18 -2 -35 -6 -38
-3 -3 -10 -16 -14 -29 -5 -18 -4 -22 6 -16 8 5 5 -2 -6 -15 -11 -13 -14 -20
-8 -16 9 5 11 2 7 -8 -3 -9 -10 -16 -15 -16 -4 0 -6 -6 -3 -14 3 -8 1 -17 -5
-21 -8 -4 -8 -12 0 -27 8 -15 8 -19 0 -14 -11 7 -13 -5 -14 -61 0 -13 -3 -23
-6 -23 -4 0 -8 -15 -9 -32 -2 -18 -7 -35 -13 -36 -6 -3 -6 -9 2 -18 7 -9 8
-14 1 -14 -5 0 -8 -10 -4 -22 3 -12 1 -19 -5 -15 -5 3 -10 0 -10 -8 0 -8 3
-15 7 -15 4 0 6 -11 5 -24 -3 -19 1 -24 16 -21 10 2 19 -1 19 -6 0 -6 5 -7 10
-4 6 3 10 1 10 -6 0 -9 3 -9 14 0 11 9 16 9 22 0 5 -8 3 -9 -6 -4 -9 5 -11 4
-6 -4 4 -6 12 -9 17 -6 16 10 50 14 44 6 -3 -5 2 -11 9 -14 8 -3 17 -1 20 6 3
9 5 9 5 0 1 -6 10 -9 23 -5 15 4 19 2 13 -7 -6 -10 -3 -11 15 -1 18 10 21 9
15 -1 -6 -9 -3 -11 8 -6 9 3 19 2 22 -4 4 -5 12 -8 18 -7 7 1 23 -4 37 -12 24
-13 24 -12 10 5 -14 17 -14 17 17 1 18 -9 33 -14 33 -10 0 4 8 0 17 -7 15 -12
16 -12 8 1 -6 12 -5 13 6 3 7 -7 21 -13 31 -13 10 0 18 -5 18 -10 0 -7 6 -7
19 -1 10 6 21 7 25 4 4 -4 16 -8 28 -10 12 -2 28 -9 37 -16 11 -9 13 -9 8 0
-5 8 1 8 20 -2 18 -9 29 -11 34 -4 3 6 11 4 19 -6 10 -12 16 -13 26 -4 11 9
14 8 14 -1 0 -7 8 -10 20 -7 10 3 24 -1 30 -8 6 -7 24 -12 41 -11 22 2 28 -1
24 -12 -4 -12 -3 -12 9 -3 10 9 16 9 21 1 5 -8 11 -8 21 1 8 6 14 7 14 2 0 -5
6 -10 13 -11 31 -2 52 -10 50 -19 -1 -5 16 -8 38 -6 26 2 39 -1 39 -10 0 -8 4
-7 10 3 8 12 10 12 10 1 0 -11 3 -11 17 0 9 8 14 9 10 3 -7 -13 19 -27 33 -19
5 3 11 1 15 -5 9 -15 28 -12 19 3 -4 6 1 4 12 -5 10 -9 22 -17 27 -17 4 -1 8
-1 10 -2 1 -1 15 -2 30 -3 15 0 32 -8 37 -16 8 -13 10 -13 10 -1 0 12 3 12 12
3 16 -16 31 -15 22 0 -4 7 5 2 19 -11 15 -14 27 -19 27 -12 0 8 5 9 18 2 11
-6 24 -6 36 1 14 8 17 7 12 -1 -5 -7 1 -11 14 -11 12 0 19 -4 16 -8 -5 -8 -2
-9 79 -15 28 -2 58 -7 67 -11 9 -4 21 -5 26 -2 6 3 15 -1 22 -10 7 -8 19 -13
26 -10 7 3 16 1 19 -4 3 -5 12 -7 19 -4 8 3 17 0 21 -5 3 -6 11 -9 16 -6 5 4
9 0 9 -7 0 -11 2 -11 9 0 7 11 11 11 24 -2 11 -12 17 -13 20 -3 4 9 6 9 6 -1
1 -7 6 -10 11 -7 6 4 17 1 25 -5 11 -9 15 -9 15 -1 0 9 5 9 20 1 11 -6 20 -7
20 -3 0 4 5 2 12 -5 7 -7 17 -8 30 -1 14 8 18 6 19 -8 0 -10 3 -13 5 -6 3 7
12 9 20 6 7 -3 12 -8 9 -12 -2 -4 2 -8 10 -8 8 0 12 5 8 10 -3 5 5 3 18 -5 13
-8 31 -14 39 -14 8 1 21 -5 28 -14 8 -8 11 -9 7 -3 -4 9 -1 11 9 7 9 -3 13
-10 10 -15 -3 -5 212 -9 515 -9 287 0 521 4 521 8 0 5 12 14 26 20 20 10 24
10 19 0 -4 -7 1 -4 9 6 9 11 16 14 16 8 0 -9 5 -10 19 -3 10 6 21 8 24 4 4 -3
14 0 24 8 11 9 14 10 9 2 -5 -9 -2 -11 8 -7 9 3 16 11 16 17 0 6 3 7 7 4 3 -4
13 -1 21 6 13 10 14 9 8 -1 -6 -10 -2 -10 21 0 15 6 33 16 40 20 6 5 14 5 17
-1 4 -6 13 -8 21 -5 8 4 12 11 8 18 -4 6 2 4 12 -4 15 -12 17 -12 10 -1 -6 11
-3 13 14 8 14 -3 24 0 27 8 3 8 12 11 20 8 8 -3 14 0 14 6 0 9 5 9 21 0 17 -9
20 -8 14 2 -6 9 -3 11 8 6 10 -3 17 -2 17 4 0 6 5 7 10 4 6 -3 10 -1 10 5 0 7
6 10 14 7 8 -3 17 -1 20 6 3 8 5 8 5 -1 1 -10 5 -9 17 3 9 9 23 14 30 11 8 -3
14 -1 14 5 0 6 5 7 10 4 6 -3 10 -2 10 4 0 5 9 8 20 6 11 -2 20 1 20 6 0 6 4
8 9 5 5 -4 11 -2 13 3 1 6 14 12 28 15 39 7 60 17 60 30 0 6 5 4 10 -4 8 -13
11 -13 19 -1 5 7 13 11 19 7 6 -3 12 -2 14 4 2 6 14 12 28 15 14 3 26 9 28 15
2 5 12 10 22 10 10 0 22 5 25 10 4 6 11 8 16 5 5 -4 9 -1 9 5 0 7 8 9 21 5 15
-5 19 -4 15 4 -6 10 6 15 27 12 4 0 7 4 7 9 0 6 10 10 21 10 12 0 28 8 36 18
8 9 12 11 8 5 -3 -7 -1 -13 4 -13 6 0 11 4 11 8 0 10 65 42 85 42 8 0 15 6 15
13 0 8 4 7 10 -3 8 -13 10 -12 10 4 0 16 2 17 17 5 9 -8 14 -9 11 -4 -4 6 7
18 23 28 17 9 27 12 24 7 -3 -6 1 -7 9 -4 9 3 14 10 11 14 -3 5 -1 11 5 15 5
3 10 1 10 -5 0 -6 10 -2 22 10 12 11 30 20 39 20 10 0 19 5 21 10 2 6 13 12
26 13 15 1 21 6 17 16 -4 11 -3 12 10 1 11 -9 15 -9 15 -1 0 7 5 9 10 6 6 -3
10 0 10 7 0 9 3 9 10 -2 9 -13 10 -13 11 0 1 8 1 18 1 21 -1 4 8 5 18 2 11 -3
20 0 20 6 0 6 6 10 13 8 6 -1 11 3 10 9 -1 6 9 10 23 8 13 -1 22 2 18 7 -3 5
0 9 7 9 7 0 21 8 32 17 14 12 18 13 12 3 -5 -8 4 -5 19 8 16 12 33 19 38 16
12 -7 39 16 32 27 -3 5 2 6 11 3 9 -4 23 0 33 8 9 8 32 21 50 29 17 8 32 17
32 21 0 5 7 8 15 8 8 0 15 6 15 13 0 8 4 7 10 -3 8 -13 10 -12 10 3 0 10 5 15
10 12 6 -4 17 -2 25 5 12 10 11 17 -6 47 -23 41 -43 63 -58 63 -6 0 -10 3 -10
8 3 20 -2 32 -16 32 -8 0 -14 5 -12 12 1 6 -8 17 -21 23 -13 7 -24 16 -25 21
-1 5 -5 8 -9 7 -7 -3 -12 21 -9 40 1 5 -3 6 -8 3 -5 -4 -12 3 -16 14 -3 11
-11 20 -16 20 -6 0 -7 5 -4 10 3 6 -3 10 -14 10 -14 0 -21 6 -21 20 0 11 -4
20 -10 20 -5 0 -10 5 -10 10 0 14 -37 50 -52 50 -6 0 -9 3 -5 6 3 4 -2 14 -11
23 -12 10 -13 13 -2 7 8 -5 4 2 -10 16 -14 14 -28 24 -32 21 -4 -2 -5 3 -2 11
4 11 0 16 -11 16 -9 0 -14 4 -11 8 3 5 -5 15 -19 22 -15 8 -22 19 -20 31 2 11
0 19 -5 19 -5 0 -8 23 -6 50 1 28 -2 50 -7 50 -5 0 1 9 14 20 16 13 19 19 10
20 -12 0 -12 3 -3 12 7 7 12 21 12 33 0 12 6 27 12 33 10 10 10 15 -1 21 -9 6
-10 11 -3 15 6 4 9 13 5 21 -3 8 -1 15 4 15 5 0 9 8 10 18 4 47 16 101 23 97
4 -2 6 11 5 30 -1 19 2 35 6 35 4 0 6 8 4 18 -1 9 2 22 7 29 5 7 7 17 4 22 -4
5 -2 12 3 15 5 3 7 15 4 25 -3 10 0 22 6 25 6 4 11 16 11 27 0 13 5 18 13 14
6 -4 4 0 -6 8 -16 13 -16 15 -2 21 11 4 14 13 10 26 -4 13 -2 20 7 20 10 0 9
3 -2 10 -11 7 -11 10 -2 10 7 0 11 4 8 9 -4 5 0 12 6 15 10 5 10 7 1 12 -7 3
-9 12 -6 20 3 7 9 11 14 8 5 -3 5 6 -1 20 -6 16 -6 27 1 31 5 4 7 11 4 16 -4
5 -1 9 5 9 6 0 9 4 5 9 -3 5 -1 12 5 16 15 9 -21 54 -43 55 -10 0 -16 4 -13 9
3 5 -8 8 -25 7 -16 -1 -32 1 -35 5 -2 4 -15 6 -29 5 -14 -2 -22 1 -18 6 3 6
-3 7 -16 3 -14 -4 -21 -2 -21 7 0 10 -3 9 -10 -2 -5 -8 -10 -10 -10 -4 0 6
-11 10 -25 9 -14 -2 -25 0 -25 5 0 4 -7 11 -16 14 -9 4 -13 2 -8 -5 4 -8 1 -8
-12 -1 -11 5 -25 7 -33 4 -8 -3 -11 0 -7 6 4 7 -3 10 -23 7 -16 -2 -38 3 -48
10 -14 10 -21 11 -32 2 -12 -10 -13 -9 -6 2 6 11 4 13 -8 8 -10 -4 -17 -1 -17
6 0 9 -3 8 -9 -1 -7 -11 -9 -10 -14 3 -5 13 -11 14 -27 5 -16 -8 -22 -8 -25 3
-3 7 -18 12 -35 11 -17 -1 -30 3 -30 8 0 6 -8 4 -17 -3 -10 -8 -14 -9 -10 -2
4 6 3 14 -3 18 -5 3 -10 1 -10 -5 0 -6 -5 -8 -10 -5 -6 4 -7 12 -3 18 4 8 1 7
-9 -1 -10 -8 -18 -9 -22 -3 -4 6 -13 8 -20 5 -8 -3 -17 0 -21 6 -6 9 -9 9 -15
0 -5 -9 -11 -8 -21 2 -8 7 -23 13 -34 12 -11 0 -29 7 -39 15 -11 9 -16 10 -12
4 4 -7 2 -13 -3 -13 -6 0 -11 6 -11 13 0 8 -4 7 -10 -3 -7 -10 -10 -11 -10 -2
0 8 -12 12 -36 10 -19 -1 -38 2 -42 7 -8 11 -22 15 -64 18 -15 1 -28 4 -28 7
0 3 -8 6 -17 7 -48 3 -73 8 -73 16 0 5 -7 4 -15 -3 -12 -10 -16 -9 -21 3 -3 9
-13 13 -25 10 -11 -3 -19 0 -19 8 0 7 -3 10 -6 6 -3 -3 -17 -2 -30 3 -17 7
-24 6 -24 -3 0 -6 -7 -3 -16 8 -17 22 -23 23 -35 3 -7 -10 -9 -10 -9 0 0 7 -4
11 -9 7 -5 -3 -12 -1 -16 5 -4 6 -11 8 -16 5 -5 -4 -9 -1 -9 6 0 8 -4 8 -15
-1 -12 -10 -15 -10 -15 0 0 8 -3 10 -7 7 -3 -4 -17 0 -31 9 -13 9 -21 11 -18
5 4 -6 2 -11 -3 -11 -6 0 -11 5 -11 10 0 6 -6 10 -12 9 -28 -3 -39 1 -32 14 5
8 2 8 -9 -2 -12 -9 -17 -10 -17 -2 0 7 -5 9 -12 5 -6 -4 -17 1 -25 11 -13 18
-13 18 -14 -1 0 -10 -3 -13 -6 -6 -2 6 -9 12 -14 12 -6 0 -7 -6 -3 -12 5 -8 1
-7 -10 2 -10 8 -25 15 -34 17 -9 1 -18 7 -20 13 -3 8 -8 7 -18 -1 -11 -9 -14
-9 -14 1 0 7 -7 10 -15 6 -8 -3 -15 -1 -15 4 0 6 -5 10 -11 10 -5 0 -7 -6 -4
-12 4 -7 0 -5 -8 5 -11 14 -16 15 -20 5 -4 -10 -6 -10 -6 1 -1 11 -4 11 -16 1
-10 -9 -15 -9 -15 -1 0 6 -17 11 -40 11 -23 0 -40 5 -40 11 0 6 -9 9 -20 6
-11 -3 -23 0 -27 5 -4 7 -1 8 7 3 9 -5 11 -4 6 4 -6 8 -12 9 -20 2 -9 -7 -16
-7 -24 1 -7 7 -12 8 -12 4 0 -5 -12 -1 -26 9 -15 9 -23 12 -19 5 6 -9 3 -9
-14 -1 -12 7 -26 9 -31 6 -6 -4 -13 1 -16 10 -4 9 -13 14 -21 10 -10 -3 -13
-1 -10 9 5 13 -57 15 -444 16 -359 0 -449 -2 -449 -12 0 -9 -3 -9 -10 2 -8 12
-10 12 -16 -3z m589 -600 c19 12 37 12 37 0 0 -8 3 -8 11 0 8 8 20 8 36 2 16
-6 22 -5 18 1 -3 6 -4 10 -1 10 2 0 16 -4 31 -10 20 -8 25 -7 19 3 -5 9 -4 9
6 0 9 -8 19 -9 32 -2 13 7 18 6 18 -3 0 -9 3 -9 11 -1 13 13 72 -4 63 -18 -3
-5 0 -9 5 -9 6 0 11 6 12 13 0 10 2 10 6 0 2 -7 11 -13 18 -13 7 0 25 -7 41
-14 15 -8 32 -12 37 -9 6 3 7 1 3 -5 -4 -8 0 -12 11 -12 10 0 25 -9 33 -19 7
-11 17 -18 22 -15 4 3 8 0 8 -6 0 -6 5 -8 10 -5 6 3 10 -1 10 -10 0 -9 5 -13
10 -10 6 3 10 1 10 -5 0 -6 5 -8 10 -5 6 3 10 -1 10 -9 0 -9 7 -16 15 -16 9 0
25 -9 37 -20 12 -10 25 -17 29 -14 4 2 11 -1 15 -7 5 -8 2 -10 -7 -5 -8 4 -6
1 3 -7 10 -8 15 -17 11 -20 -3 -4 2 -7 11 -7 12 0 16 -5 13 -14 -4 -9 2 -17
14 -21 10 -4 19 -15 19 -26 0 -11 5 -17 10 -14 6 3 10 0 10 -7 0 -7 14 -26 30
-41 17 -17 30 -39 30 -53 0 -13 5 -24 11 -24 5 0 7 -4 4 -10 -3 -5 -2 -10 4
-10 6 0 7 -7 4 -17 -4 -10 -2 -14 4 -10 6 4 14 0 17 -9 4 -9 2 -13 -5 -8 -6 3
-3 -6 7 -22 11 -15 19 -31 19 -34 0 -3 4 -4 9 -2 5 2 4 -4 -4 -12 -9 -12 -10
-16 0 -16 7 0 10 -6 7 -14 -3 -8 1 -20 9 -27 11 -9 11 -15 3 -25 -8 -10 -7
-17 5 -29 21 -22 20 -31 -1 -14 -17 13 -17 12 -2 -11 10 -16 13 -32 9 -45 -5
-12 -2 -29 7 -44 9 -14 10 -21 3 -16 -9 6 -11 -3 -8 -34 2 -22 0 -41 -5 -41
-4 0 -5 -5 -1 -12 10 -16 12 -58 2 -58 -4 0 -5 -9 -3 -20 2 -11 1 -20 -3 -20
-4 0 -8 -9 -8 -20 0 -11 5 -20 11 -20 5 0 3 -4 -5 -10 -8 -5 -11 -12 -7 -16 4
-4 -1 -13 -11 -20 -14 -11 -14 -13 -2 -14 10 0 7 -7 -10 -21 -21 -17 -21 -20
-5 -14 18 6 18 4 -3 -15 -13 -12 -21 -29 -18 -37 3 -8 1 -11 -4 -8 -6 3 -10 0
-10 -8 0 -7 -10 -24 -22 -37 -12 -13 -23 -32 -23 -43 -1 -10 -8 -23 -16 -28
-8 -5 -10 -9 -5 -9 5 0 -3 -11 -18 -25 -14 -13 -26 -29 -26 -35 0 -6 -5 -8
-12 -4 -8 5 -9 2 -5 -9 3 -9 3 -16 -1 -16 -17 3 -32 -2 -29 -9 1 -4 -1 -7 -5
-7 -3 0 -21 -16 -38 -35 -18 -19 -29 -28 -24 -20 6 10 3 9 -8 -2 -9 -10 -21
-18 -28 -18 -6 0 -8 -4 -5 -10 6 -9 -8 -15 -29 -11 -5 1 -6 -5 -2 -14 3 -9 2
-13 -4 -10 -6 3 -10 1 -10 -6 0 -7 -3 -9 -6 -6 -9 9 -46 -12 -39 -23 3 -5 -4
-7 -15 -5 -11 2 -24 -3 -28 -12 -7 -11 -11 -12 -17 -4 -5 9 -14 6 -31 -10 -13
-12 -34 -23 -48 -24 -14 -2 -31 -7 -38 -11 -21 -13 -41 -14 -55 -2 -10 8 -12
7 -7 -6 4 -9 3 -16 -2 -15 -5 1 -11 1 -14 -1 -3 -1 -16 -3 -30 -6 -20 -3 -22
-2 -10 7 12 9 11 9 -5 3 -11 -4 -37 -8 -57 -9 -21 0 -38 -2 -38 -5 0 -3 -20
-5 -45 -5 -25 0 -45 5 -45 10 0 6 -5 3 -10 -5 -6 -9 -10 -11 -10 -3 0 7 -7 10
-15 7 -8 -4 -15 -2 -15 3 0 11 -30 11 -48 -1 -7 -4 -11 -3 -10 2 2 6 -1 10 -6
10 -5 0 -13 6 -17 14 -7 10 -9 10 -9 -2 -1 -12 -3 -11 -11 3 -6 9 -14 15 -20
12 -5 -4 -9 -2 -9 2 0 5 -12 10 -27 11 -16 1 -29 7 -31 12 -2 6 -13 10 -23 10
-11 0 -17 5 -14 10 5 9 -15 15 -37 11 -5 0 -7 4 -5 11 1 7 -5 13 -13 13 -8 0
-14 6 -13 13 2 6 -4 9 -12 6 -14 -6 -20 7 -16 30 1 5 -6 3 -15 -5 -12 -9 -15
-9 -10 -1 4 6 2 13 -3 13 -6 1 -15 2 -20 3 -5 0 -13 5 -18 10 -5 5 -2 6 6 1
10 -6 12 -4 7 4 -5 7 -15 10 -23 7 -8 -3 -12 -2 -9 3 7 11 -29 53 -38 44 -4
-4 -4 0 0 10 3 10 1 17 -6 17 -13 0 -40 25 -40 37 0 4 -9 14 -20 21 -11 7 -20
19 -20 27 0 8 -4 15 -10 15 -5 0 -10 9 -10 21 0 13 -4 18 -12 13 -8 -5 -9 -2
-5 9 4 10 1 17 -5 17 -6 0 -8 3 -5 7 4 3 -1 12 -10 18 -9 7 -18 25 -20 41 -2
16 -11 35 -20 42 -13 9 -13 12 -3 12 9 0 8 5 -6 16 -10 8 -12 12 -4 8 12 -7
13 -5 3 8 -7 8 -10 18 -6 21 3 4 1 7 -6 7 -9 0 -9 5 0 22 10 18 9 20 -5 15
-17 -7 -18 13 -1 25 6 5 5 8 -4 8 -7 0 -11 6 -7 15 3 8 1 15 -5 15 -7 0 -7 6
0 17 7 13 5 23 -7 36 -15 17 -15 17 3 11 13 -5 16 -4 11 5 -10 15 -12 109 -3
118 4 3 2 12 -4 20 -9 10 -8 13 2 13 9 0 10 3 2 11 -12 12 -5 52 8 43 5 -3 6
2 3 10 -3 9 -11 13 -16 10 -6 -4 -2 6 8 22 19 28 19 28 -1 21 -20 -7 -20 -7
-1 8 14 11 16 15 5 15 -11 0 -12 2 -1 9 8 4 13 12 13 17 -2 22 11 44 22 37 7
-4 6 1 -2 10 -10 13 -10 17 -1 17 7 0 10 7 6 15 -3 8 0 14 6 12 6 -1 17 8 23
20 7 13 15 20 18 17 4 -4 4 3 2 15 -2 13 0 19 6 15 6 -3 13 3 16 15 3 12 10
21 15 21 5 0 7 4 4 9 -3 5 1 11 9 15 8 3 20 17 27 31 6 14 18 25 25 25 8 0 11
5 8 10 -3 6 -1 10 5 10 7 0 9 7 6 16 -3 9 -2 12 5 9 5 -4 21 5 33 18 13 14 27
23 31 19 4 -4 5 0 4 8 -2 8 0 16 4 17 5 1 16 10 25 21 9 10 24 17 32 14 8 -3
12 -1 8 3 -10 10 19 38 32 30 5 -3 7 0 4 8 -3 10 5 16 27 21 17 3 38 14 46 24
8 9 12 12 9 5 -4 -6 10 -3 31 7 21 10 41 16 45 13 5 -2 8 1 8 8 0 8 5 7 17 -2
14 -12 16 -12 8 0 -6 11 -4 13 9 8 10 -4 15 -3 11 3 -3 6 5 10 19 10 14 0 26
6 26 13 0 8 3 7 10 -3 8 -12 10 -12 16 3 3 9 10 17 16 17 5 0 7 -4 4 -8 -2 -4
4 -8 14 -8 10 0 17 3 14 7 -2 4 2 9 8 12 7 2 15 0 16 -5 2 -4 9 -5 15 -1z
m-1288 -248 c4 -6 13 -8 20 -5 7 2 16 -2 19 -10 4 -10 2 -13 -7 -8 -9 5 -9 4
1 -7 13 -15 17 -53 3 -45 -4 3 -7 -6 -5 -19 1 -14 -2 -25 -6 -25 -5 0 -7 -9
-5 -20 2 -11 0 -18 -6 -15 -5 4 -10 -9 -11 -27 0 -18 -2 -37 -3 -43 -2 -5 -4
-14 -5 -20 -1 -5 -2 -13 -1 -17 0 -5 -4 -8 -10 -8 -5 0 -7 -5 -4 -10 4 -6 1
-18 -7 -27 -11 -14 -11 -16 2 -9 8 4 6 0 -4 -8 -11 -9 -14 -16 -8 -16 10 0 10
-5 2 -20 -6 -11 -8 -20 -4 -20 3 0 0 -8 -7 -17 -8 -9 -9 -14 -3 -10 8 4 11 -2
10 -18 0 -14 -5 -25 -11 -25 -5 0 -3 -5 5 -10 8 -5 10 -10 4 -10 -7 0 -10 -28
-10 -75 1 -41 -3 -75 -7 -75 -5 0 -5 -6 -1 -12 5 -7 7 -36 6 -65 -1 -29 3 -55
9 -58 7 -5 6 -12 -2 -21 -6 -8 -7 -14 -2 -14 5 0 10 -7 10 -15 0 -8 -4 -15 -9
-15 -5 0 -2 -10 6 -22 10 -15 12 -26 6 -39 -7 -12 -6 -19 1 -21 7 -2 13 -19
16 -38 2 -19 7 -36 12 -39 4 -4 7 -14 5 -24 -1 -9 1 -15 6 -12 4 3 10 -2 14
-10 3 -8 1 -17 -5 -21 -6 -4 -4 -13 7 -25 9 -11 12 -19 6 -19 -6 0 -9 -6 -6
-13 3 -8 -2 -20 -11 -27 -12 -10 -15 -10 -15 1 0 8 -6 5 -15 -7 -14 -19 -14
-19 -15 1 l-1 20 -9 -20 c-5 -11 -9 -15 -9 -8 -1 7 -7 10 -15 7 -8 -3 -17 0
-21 6 -5 8 -11 8 -21 -1 -11 -9 -14 -9 -14 0 0 7 -4 10 -9 7 -14 -9 -42 5 -35
16 4 6 -3 5 -15 -1 -11 -7 -21 -8 -21 -2 0 5 -7 12 -16 15 -9 4 -13 2 -8 -5 5
-8 1 -8 -13 0 -11 6 -24 7 -28 3 -5 -4 -5 2 -1 12 5 15 4 17 -8 7 -9 -8 -16
-8 -20 -2 -4 6 -12 8 -20 5 -7 -3 -13 2 -14 11 -1 8 -3 22 -4 30 -1 10 -7 14
-17 10 -12 -5 -12 -2 2 13 9 10 14 22 10 25 -3 4 -1 7 6 7 7 0 9 5 4 13 -13
22 -12 36 4 30 13 -5 14 -3 5 12 -6 12 -6 26 -1 37 5 10 14 27 20 39 7 15 7
19 0 14 -6 -3 -11 -2 -11 4 0 5 5 13 11 16 6 4 8 13 5 21 -3 8 -1 14 3 14 5 0
8 8 7 18 -2 9 2 20 8 25 8 5 6 10 -4 17 -11 7 -11 10 -2 10 7 0 10 5 7 10 -3
6 -1 10 6 10 9 0 9 3 0 14 -10 11 -9 16 5 24 12 7 13 11 5 17 -9 5 -9 10 0 21
6 8 8 14 3 14 -5 0 -2 5 6 10 12 8 12 10 1 10 -11 0 -10 5 2 24 12 17 13 26 5
34 -9 9 -6 17 7 33 11 11 15 20 10 19 -22 -5 -25 1 -14 21 8 15 8 19 0 15 -7
-5 -11 1 -11 14 0 12 -4 18 -10 15 -5 -3 -10 1 -10 9 0 9 -4 16 -10 16 -5 0
-10 8 -10 17 0 9 -3 14 -6 10 -9 -9 -34 19 -34 38 0 9 -4 14 -9 11 -5 -3 -12
1 -15 10 -3 8 -10 13 -15 10 -5 -3 -7 4 -3 16 3 14 2 19 -6 14 -7 -4 -12 -1
-12 8 0 9 -4 16 -8 16 -5 0 -9 7 -9 15 0 8 5 15 10 15 5 0 4 6 -2 14 -9 11 -9
16 0 22 8 5 10 3 4 -7 -4 -8 1 -5 12 6 11 11 18 25 15 30 -3 6 1 4 10 -3 13
-10 17 -10 22 3 3 9 10 14 15 11 5 -3 11 1 15 9 3 8 12 12 21 9 8 -3 15 -2 15
4 0 5 10 8 23 8 12 -1 30 7 40 18 10 12 16 15 12 8 -6 -11 -3 -11 16 0 13 7
28 19 32 26 7 10 12 10 23 1 11 -9 15 -8 20 4 3 9 12 13 20 10 8 -3 14 1 14 8
0 7 3 9 6 6 4 -3 16 0 28 8 24 18 33 19 41 4z m2736 -38 c0 10 2 10 5 2 3 -7
12 -9 20 -6 8 3 21 0 29 -7 12 -10 15 -10 15 0 0 9 7 7 20 -5 14 -13 20 -14
20 -5 0 9 5 7 16 -6 8 -10 13 -14 10 -7 -4 7 1 11 14 10 11 -1 20 -6 20 -11 0
-5 3 -6 7 -3 3 4 12 2 20 -4 10 -9 13 -8 13 0 0 7 5 9 10 6 6 -4 8 -10 6 -14
-3 -4 1 -8 9 -8 8 0 15 4 15 9 0 4 11 -2 24 -13 15 -13 22 -27 19 -37 -4 -10
-2 -13 5 -8 11 6 11 -29 1 -49 -3 -6 -6 -26 -8 -45 -1 -19 -7 -38 -14 -42 -7
-4 -9 -8 -5 -8 4 0 3 -11 -2 -25 -7 -18 -6 -25 3 -26 9 0 9 -2 0 -5 -7 -3 -10
-11 -7 -19 3 -7 1 -16 -5 -19 -6 -4 -8 -13 -4 -21 3 -8 0 -15 -7 -15 -10 0
-10 -3 0 -15 9 -11 9 -15 1 -15 -7 0 -9 -4 -6 -10 3 -5 2 -10 -4 -10 -6 0 -7
-7 -4 -17 5 -12 3 -14 -7 -8 -9 6 -11 4 -5 -6 12 -18 14 -49 3 -43 -8 5 -12
-9 -9 -33 1 -7 -4 -13 -11 -13 -9 0 -9 -3 2 -10 8 -5 10 -10 3 -10 -6 0 -9 -9
-5 -22 3 -14 1 -19 -6 -14 -7 4 -9 -1 -6 -14 2 -11 6 -29 8 -40 3 -11 1 -22
-5 -25 -5 -3 0 -16 11 -27 11 -12 20 -28 20 -35 0 -7 7 -13 16 -13 8 0 12 -4
9 -10 -3 -5 -1 -10 4 -10 6 0 11 -7 11 -16 0 -8 5 -12 10 -9 6 3 10 1 10 -5 0
-6 6 -8 13 -4 9 5 9 4 0 -6 -9 -10 -9 -16 2 -26 7 -8 18 -14 24 -14 6 0 13
-11 17 -25 3 -14 11 -22 17 -18 6 4 8 -4 5 -20 -3 -15 -1 -24 3 -21 5 3 9 0 9
-5 0 -6 -4 -11 -10 -11 -5 0 -10 -7 -10 -16 0 -8 -4 -12 -10 -9 -5 3 -10 1
-10 -6 0 -7 -3 -9 -6 -6 -4 4 -14 -1 -23 -11 -9 -10 -26 -17 -38 -16 -12 1
-20 -3 -17 -7 5 -8 -3 -11 -22 -8 -4 0 -10 -5 -14 -11 -4 -7 -19 -13 -33 -13
-14 -1 -24 -4 -21 -6 7 -7 -48 -31 -57 -25 -5 3 -9 1 -9 -4 0 -6 -7 -13 -16
-16 -10 -4 -13 -2 -8 7 4 6 -3 3 -15 -8 -13 -11 -32 -19 -43 -17 -11 2 -18 0
-15 -5 4 -5 -9 -9 -28 -8 -18 0 -31 -3 -29 -7 3 -4 0 -8 -5 -8 -6 0 -11 6 -11
14 0 8 -6 16 -12 19 -10 3 -10 9 -1 24 9 15 9 23 0 32 -8 8 -8 11 2 11 8 0 11
7 8 20 -3 12 -1 18 5 14 6 -4 9 -1 6 7 -3 8 2 20 9 28 8 7 12 19 9 27 -3 7 -1
14 4 16 5 2 11 19 13 38 2 19 9 45 15 57 8 13 8 24 2 28 -5 3 -7 12 -4 20 4 8
11 12 18 8 6 -4 5 1 -3 10 -11 14 -11 17 0 17 11 0 11 2 -1 10 -12 8 -12 10
-1 10 8 0 12 3 8 6 -3 3 -2 17 4 31 5 13 5 22 0 19 -5 -3 -11 1 -14 9 -4 9 -1
12 8 9 10 -4 12 0 8 15 -3 12 0 27 6 35 8 10 9 16 1 21 -5 3 -10 11 -10 16 0
6 3 8 8 6 4 -3 7 6 7 19 0 17 -4 23 -14 19 -11 -4 -12 -3 -1 10 7 8 9 15 5 15
-4 0 -2 7 5 15 9 11 9 15 1 15 -7 0 -9 5 -6 10 3 6 3 15 -1 22 -12 20 -14 58
-2 58 7 0 7 4 -1 13 -6 8 -8 17 -4 20 3 4 0 7 -8 7 -11 0 -11 2 1 10 13 9 13
10 0 10 -13 0 -13 1 0 10 8 5 10 10 4 10 -10 0 -14 13 -15 54 0 11 -5 28 -10
38 -6 11 -11 32 -11 48 -1 16 -5 27 -11 23 -5 -3 -7 0 -5 8 3 8 1 24 -3 36 -5
14 -4 23 4 27 7 2 5 5 -5 5 -17 1 -19 16 -5 39 5 7 3 12 -5 13 -7 0 -3 5 10
11 12 6 22 15 22 21 0 5 7 4 15 -3 12 -10 15 -10 16 1z m1290 -1108 c13 -16
12 -17 -3 -4 -10 7 -18 15 -18 17 0 8 8 3 21 -13z"/>
</g>
</svg>
